<svg xmlns="http://www.w3.org/2000/svg" width="23" height="23" viewBox="0 0 23 23">
  <defs>
    <style>
      .cls-1 {
        fill: #fff;
        fill-rule: evenodd;
      }
    </style>
  </defs>
  <path id="find" class="cls-1" d="M1355.07,65a9.068,9.068,0,1,0,4.47,16.956l5.31,5.318a2.418,2.418,0,1,0,3.42-3.419l-5.31-5.318A9.064,9.064,0,0,0,1355.07,65h0Zm0,1.814a7.254,7.254,0,1,1-7.26,7.254A7.235,7.235,0,0,1,1355.07,66.813Zm6.82,13.215,5.1,5.1a0.608,0.608,0,0,1-.86.86l-5.1-5.1a10.231,10.231,0,0,0,.86-0.86h0Z" transform="translate(-1346 -65)"/>
</svg>
