<svg width="185" height="88" viewBox="0 0 185 88" fill="none" xmlns="http://www.w3.org/2000/svg">
<path d="M21.4599 39.9399L11.3799 57.3999H31.5499L21.4599 39.9399Z" fill="#001D49"/>
<path d="M54.9098 57.4H68.8898L40.4098 0L33.7998 15.09L54.9098 57.4Z" fill="#001D49"/>
<path d="M125.84 15.09L119.22 0L90.75 57.4H104.72L125.84 15.09Z" fill="#001D49"/>
<path d="M163.23 39.9399L173.31 57.3999H153.15L163.23 39.9399Z" fill="#001D49"/>
<path d="M150.9 15.09L144.28 0L115.81 57.4H129.78L150.9 15.09Z" fill="#001D49"/>
<path d="M98.7704 17.46L108.85 0H88.6904L98.7704 17.46Z" fill="#001D49"/>
<path d="M65.3198 0H51.3398L79.8198 57.4L86.4398 42.31L65.3198 0Z" fill="#001D49"/>
<path d="M7.12646 81.2168H2.65869L1.65527 84H0.205078L4.27734 73.3359H5.50781L9.5874 84H8.14453L7.12646 81.2168ZM3.0835 80.0596H6.70898L4.89258 75.0718L3.0835 80.0596ZM15.4248 81.8979C15.4248 81.5317 15.2856 81.2485 15.0073 81.0483C14.7339 80.8433 14.2529 80.6675 13.5645 80.521C12.8809 80.3745 12.3364 80.1987 11.9312 79.9937C11.5308 79.7886 11.2329 79.5444 11.0376 79.2612C10.8472 78.978 10.752 78.6411 10.752 78.2505C10.752 77.6011 11.0254 77.0518 11.5723 76.6025C12.124 76.1533 12.8271 75.9287 13.6816 75.9287C14.5801 75.9287 15.3076 76.1606 15.8643 76.6245C16.4258 77.0884 16.7065 77.6816 16.7065 78.4043H15.3442C15.3442 78.0332 15.1855 77.7134 14.8682 77.4448C14.5557 77.1763 14.1602 77.042 13.6816 77.042C13.1885 77.042 12.8027 77.1494 12.5244 77.3643C12.2461 77.5791 12.1069 77.8599 12.1069 78.2065C12.1069 78.5337 12.2363 78.7803 12.4951 78.9463C12.7539 79.1123 13.2202 79.271 13.894 79.4224C14.5728 79.5737 15.1221 79.7544 15.542 79.9644C15.9619 80.1743 16.272 80.4282 16.4722 80.7261C16.6772 81.019 16.7798 81.3779 16.7798 81.8027C16.7798 82.5107 16.4966 83.0796 15.9302 83.5093C15.3638 83.9341 14.6289 84.1465 13.7256 84.1465C13.0908 84.1465 12.5293 84.0342 12.041 83.8096C11.5527 83.585 11.1694 83.2725 10.8911 82.8721C10.6177 82.4668 10.481 82.0298 10.481 81.561H11.8359C11.8604 82.0151 12.041 82.3765 12.3779 82.645C12.7197 82.9087 13.1689 83.0405 13.7256 83.0405C14.2383 83.0405 14.6484 82.938 14.9561 82.7329C15.2686 82.5229 15.4248 82.2446 15.4248 81.8979ZM20.3833 74.1562V76.0752H21.8628V77.1226H20.3833V82.0371C20.3833 82.3545 20.4492 82.5938 20.5811 82.7549C20.7129 82.9111 20.9375 82.9893 21.2549 82.9893C21.4111 82.9893 21.626 82.96 21.8994 82.9014V84C21.543 84.0977 21.1963 84.1465 20.8594 84.1465C20.2539 84.1465 19.7974 83.9634 19.4897 83.5972C19.1821 83.231 19.0283 82.7109 19.0283 82.0371V77.1226H17.5854V76.0752H19.0283V74.1562H20.3833ZM28.3447 84C28.2666 83.8438 28.2031 83.5654 28.1543 83.165C27.5244 83.8193 26.7725 84.1465 25.8984 84.1465C25.1172 84.1465 24.4751 83.9268 23.9722 83.4873C23.4741 83.043 23.2251 82.4814 23.2251 81.8027C23.2251 80.9775 23.5376 80.3379 24.1626 79.8838C24.7925 79.4248 25.6763 79.1953 26.814 79.1953H28.1323V78.5728C28.1323 78.0991 27.9907 77.7231 27.7075 77.4448C27.4243 77.1616 27.0068 77.02 26.4551 77.02C25.9717 77.02 25.5664 77.1421 25.2393 77.3862C24.9121 77.6304 24.7485 77.9258 24.7485 78.2725H23.3862C23.3862 77.877 23.5254 77.4961 23.8037 77.1299C24.0869 76.7588 24.4678 76.4658 24.9463 76.251C25.4297 76.0361 25.9595 75.9287 26.5356 75.9287C27.4487 75.9287 28.1641 76.1582 28.6816 76.6172C29.1992 77.0713 29.4678 77.6987 29.4873 78.4995V82.147C29.4873 82.8745 29.5801 83.4531 29.7656 83.8828V84H28.3447ZM26.0962 82.9673C26.521 82.9673 26.9238 82.8574 27.3047 82.6377C27.6855 82.418 27.9614 82.1323 28.1323 81.7808V80.1548H27.0703C25.4102 80.1548 24.5801 80.6406 24.5801 81.6123C24.5801 82.0371 24.7217 82.3691 25.0049 82.6084C25.2881 82.8477 25.6519 82.9673 26.0962 82.9673ZM32.8931 76.0752L32.937 77.0713C33.5425 76.3096 34.3335 75.9287 35.3101 75.9287C36.9849 75.9287 37.8296 76.8735 37.8442 78.7632V84H36.4893V78.7559C36.4844 78.1846 36.3525 77.7622 36.0938 77.4888C35.8398 77.2153 35.4419 77.0786 34.8999 77.0786C34.4604 77.0786 34.0747 77.1958 33.7427 77.4302C33.4106 77.6646 33.1519 77.9722 32.9663 78.353V84H31.6113V76.0752H32.8931ZM44.7803 84C44.7021 83.8438 44.6387 83.5654 44.5898 83.165C43.96 83.8193 43.208 84.1465 42.334 84.1465C41.5527 84.1465 40.9106 83.9268 40.4077 83.4873C39.9097 83.043 39.6606 82.4814 39.6606 81.8027C39.6606 80.9775 39.9731 80.3379 40.5981 79.8838C41.228 79.4248 42.1118 79.1953 43.2495 79.1953H44.5679V78.5728C44.5679 78.0991 44.4263 77.7231 44.1431 77.4448C43.8599 77.1616 43.4424 77.02 42.8906 77.02C42.4072 77.02 42.002 77.1421 41.6748 77.3862C41.3477 77.6304 41.1841 77.9258 41.1841 78.2725H39.8218C39.8218 77.877 39.9609 77.4961 40.2393 77.1299C40.5225 76.7588 40.9033 76.4658 41.3818 76.251C41.8652 76.0361 42.395 75.9287 42.9712 75.9287C43.8843 75.9287 44.5996 76.1582 45.1172 76.6172C45.6348 77.0713 45.9033 77.6987 45.9229 78.4995V82.147C45.9229 82.8745 46.0156 83.4531 46.2012 83.8828V84H44.7803ZM42.5317 82.9673C42.9565 82.9673 43.3594 82.8574 43.7402 82.6377C44.1211 82.418 44.397 82.1323 44.5679 81.7808V80.1548H43.5059C41.8457 80.1548 41.0156 80.6406 41.0156 81.6123C41.0156 82.0371 41.1572 82.3691 41.4404 82.6084C41.7236 82.8477 42.0874 82.9673 42.5317 82.9673ZM55.5103 82.1323L58.5571 73.3359H60.0952L56.1401 84H54.895L50.9473 73.3359H52.478L55.5103 82.1323ZM64.2847 84.1465C63.2104 84.1465 62.3364 83.7949 61.6626 83.0918C60.9888 82.3838 60.6519 81.439 60.6519 80.2573V80.0083C60.6519 79.2222 60.8008 78.5215 61.0986 77.9062C61.4014 77.2861 61.8213 76.8027 62.3584 76.4561C62.9004 76.1045 63.4863 75.9287 64.1162 75.9287C65.1465 75.9287 65.9473 76.2681 66.5186 76.9468C67.0898 77.6255 67.3755 78.5972 67.3755 79.8618V80.4258H62.0068C62.0264 81.207 62.2534 81.8394 62.688 82.3228C63.1274 82.8013 63.6841 83.0405 64.3579 83.0405C64.8364 83.0405 65.2417 82.9429 65.5737 82.7476C65.9058 82.5522 66.1963 82.2935 66.4453 81.9712L67.2729 82.6157C66.6089 83.6362 65.6128 84.1465 64.2847 84.1465ZM64.1162 77.042C63.5693 77.042 63.1104 77.2422 62.7393 77.6426C62.3682 78.0381 62.1387 78.5947 62.0508 79.3125H66.0205V79.21C65.9814 78.5215 65.7959 77.9893 65.4639 77.6133C65.1318 77.2324 64.6826 77.042 64.1162 77.042ZM70.2319 76.0752L70.2759 77.0713C70.8813 76.3096 71.6724 75.9287 72.6489 75.9287C74.3237 75.9287 75.1685 76.8735 75.1831 78.7632V84H73.8281V78.7559C73.8232 78.1846 73.6914 77.7622 73.4326 77.4888C73.1787 77.2153 72.7808 77.0786 72.2388 77.0786C71.7993 77.0786 71.4136 77.1958 71.0815 77.4302C70.7495 77.6646 70.4907 77.9722 70.3052 78.353V84H68.9502V76.0752H70.2319ZM82.1191 83.2163C81.5918 83.8364 80.8179 84.1465 79.7974 84.1465C78.9526 84.1465 78.3081 83.9023 77.8638 83.4141C77.4243 82.9209 77.2021 82.1934 77.1973 81.2314V76.0752H78.5522V81.1948C78.5522 82.396 79.0405 82.9966 80.0171 82.9966C81.0522 82.9966 81.7407 82.6108 82.0825 81.8394V76.0752H83.4375V84H82.1484L82.1191 83.2163ZM88.7915 84.1465C87.7173 84.1465 86.8433 83.7949 86.1694 83.0918C85.4956 82.3838 85.1587 81.439 85.1587 80.2573V80.0083C85.1587 79.2222 85.3076 78.5215 85.6055 77.9062C85.9082 77.2861 86.3281 76.8027 86.8652 76.4561C87.4072 76.1045 87.9932 75.9287 88.623 75.9287C89.6533 75.9287 90.4541 76.2681 91.0254 76.9468C91.5967 77.6255 91.8823 78.5972 91.8823 79.8618V80.4258H86.5137C86.5332 81.207 86.7603 81.8394 87.1948 82.3228C87.6343 82.8013 88.1909 83.0405 88.8647 83.0405C89.3433 83.0405 89.7485 82.9429 90.0806 82.7476C90.4126 82.5522 90.7031 82.2935 90.9521 81.9712L91.7798 82.6157C91.1157 83.6362 90.1196 84.1465 88.7915 84.1465ZM88.623 77.042C88.0762 77.042 87.6172 77.2422 87.2461 77.6426C86.875 78.0381 86.6455 78.5947 86.5576 79.3125H90.5273V79.21C90.4883 78.5215 90.3027 77.9893 89.9707 77.6133C89.6387 77.2324 89.1895 77.042 88.623 77.042ZM99.2065 73.3359L102.693 82.0371L106.179 73.3359H108.003V84H106.597V79.8472L106.729 75.3647L103.228 84H102.151L98.6572 75.3867L98.7964 79.8472V84H97.3901V73.3359H99.2065ZM115.166 84C115.088 83.8438 115.024 83.5654 114.976 83.165C114.346 83.8193 113.594 84.1465 112.72 84.1465C111.938 84.1465 111.296 83.9268 110.793 83.4873C110.295 83.043 110.046 82.4814 110.046 81.8027C110.046 80.9775 110.359 80.3379 110.984 79.8838C111.614 79.4248 112.498 79.1953 113.635 79.1953H114.954V78.5728C114.954 78.0991 114.812 77.7231 114.529 77.4448C114.246 77.1616 113.828 77.02 113.276 77.02C112.793 77.02 112.388 77.1421 112.061 77.3862C111.733 77.6304 111.57 77.9258 111.57 78.2725H110.208C110.208 77.877 110.347 77.4961 110.625 77.1299C110.908 76.7588 111.289 76.4658 111.768 76.251C112.251 76.0361 112.781 75.9287 113.357 75.9287C114.27 75.9287 114.985 76.1582 115.503 76.6172C116.021 77.0713 116.289 77.6987 116.309 78.4995V82.147C116.309 82.8745 116.401 83.4531 116.587 83.8828V84H115.166ZM112.917 82.9673C113.342 82.9673 113.745 82.8574 114.126 82.6377C114.507 82.418 114.783 82.1323 114.954 81.7808V80.1548H113.892C112.231 80.1548 111.401 80.6406 111.401 81.6123C111.401 82.0371 111.543 82.3691 111.826 82.6084C112.109 82.8477 112.473 82.9673 112.917 82.9673ZM119.714 76.0752L119.758 77.0713C120.364 76.3096 121.155 75.9287 122.131 75.9287C123.806 75.9287 124.651 76.8735 124.666 78.7632V84H123.311V78.7559C123.306 78.1846 123.174 77.7622 122.915 77.4888C122.661 77.2153 122.263 77.0786 121.721 77.0786C121.282 77.0786 120.896 77.1958 120.564 77.4302C120.232 77.6646 119.973 77.9722 119.788 78.353V84H118.433V76.0752H119.714ZM131.602 84C131.523 83.8438 131.46 83.5654 131.411 83.165C130.781 83.8193 130.029 84.1465 129.155 84.1465C128.374 84.1465 127.732 83.9268 127.229 83.4873C126.731 83.043 126.482 82.4814 126.482 81.8027C126.482 80.9775 126.794 80.3379 127.419 79.8838C128.049 79.4248 128.933 79.1953 130.071 79.1953H131.389V78.5728C131.389 78.0991 131.248 77.7231 130.964 77.4448C130.681 77.1616 130.264 77.02 129.712 77.02C129.229 77.02 128.823 77.1421 128.496 77.3862C128.169 77.6304 128.005 77.9258 128.005 78.2725H126.643C126.643 77.877 126.782 77.4961 127.061 77.1299C127.344 76.7588 127.725 76.4658 128.203 76.251C128.687 76.0361 129.216 75.9287 129.792 75.9287C130.706 75.9287 131.421 76.1582 131.938 76.6172C132.456 77.0713 132.725 77.6987 132.744 78.4995V82.147C132.744 82.8745 132.837 83.4531 133.022 83.8828V84H131.602ZM129.353 82.9673C129.778 82.9673 130.181 82.8574 130.562 82.6377C130.942 82.418 131.218 82.1323 131.389 81.7808V80.1548H130.327C128.667 80.1548 127.837 80.6406 127.837 81.6123C127.837 82.0371 127.979 82.3691 128.262 82.6084C128.545 82.8477 128.909 82.9673 129.353 82.9673ZM134.546 79.9717C134.546 78.7363 134.832 77.7549 135.403 77.0273C135.974 76.2949 136.731 75.9287 137.673 75.9287C138.64 75.9287 139.395 76.2705 139.937 76.9541L140.002 76.0752H141.24V83.8096C141.24 84.835 140.935 85.6431 140.325 86.2339C139.719 86.8247 138.904 87.1201 137.878 87.1201C137.307 87.1201 136.748 86.998 136.201 86.7539C135.654 86.5098 135.237 86.1753 134.949 85.7505L135.652 84.9375C136.233 85.6553 136.943 86.0142 137.783 86.0142C138.442 86.0142 138.955 85.8286 139.321 85.4575C139.692 85.0864 139.878 84.564 139.878 83.8901V83.209C139.336 83.834 138.596 84.1465 137.659 84.1465C136.731 84.1465 135.979 83.7729 135.403 83.0259C134.832 82.2788 134.546 81.2607 134.546 79.9717ZM135.908 80.1255C135.908 81.019 136.091 81.7222 136.458 82.2349C136.824 82.7427 137.336 82.9966 137.996 82.9966C138.85 82.9966 139.478 82.6084 139.878 81.832V78.2139C139.463 77.457 138.84 77.0786 138.01 77.0786C137.351 77.0786 136.836 77.335 136.465 77.8477C136.094 78.3604 135.908 79.1196 135.908 80.1255ZM146.58 84.1465C145.505 84.1465 144.631 83.7949 143.958 83.0918C143.284 82.3838 142.947 81.439 142.947 80.2573V80.0083C142.947 79.2222 143.096 78.5215 143.394 77.9062C143.696 77.2861 144.116 76.8027 144.653 76.4561C145.195 76.1045 145.781 75.9287 146.411 75.9287C147.441 75.9287 148.242 76.2681 148.813 76.9468C149.385 77.6255 149.67 78.5972 149.67 79.8618V80.4258H144.302C144.321 81.207 144.548 81.8394 144.983 82.3228C145.422 82.8013 145.979 83.0405 146.653 83.0405C147.131 83.0405 147.537 82.9429 147.869 82.7476C148.201 82.5522 148.491 82.2935 148.74 81.9712L149.568 82.6157C148.904 83.6362 147.908 84.1465 146.58 84.1465ZM146.411 77.042C145.864 77.042 145.405 77.2422 145.034 77.6426C144.663 78.0381 144.434 78.5947 144.346 79.3125H148.315V79.21C148.276 78.5215 148.091 77.9893 147.759 77.6133C147.427 77.2324 146.978 77.042 146.411 77.042ZM152.52 76.0752L152.556 76.9541C153.137 76.2705 153.921 75.9287 154.907 75.9287C156.016 75.9287 156.77 76.3535 157.17 77.2031C157.434 76.8223 157.776 76.5146 158.196 76.2803C158.621 76.0459 159.121 75.9287 159.697 75.9287C161.436 75.9287 162.319 76.8491 162.349 78.6899V84H160.994V78.7705C160.994 78.2041 160.864 77.7817 160.605 77.5034C160.347 77.2202 159.912 77.0786 159.302 77.0786C158.799 77.0786 158.381 77.23 158.049 77.5327C157.717 77.8306 157.524 78.2334 157.471 78.7412V84H156.108V78.8071C156.108 77.6548 155.544 77.0786 154.417 77.0786C153.528 77.0786 152.92 77.457 152.593 78.2139V84H151.238V76.0752H152.52ZM167.688 84.1465C166.614 84.1465 165.74 83.7949 165.066 83.0918C164.392 82.3838 164.055 81.439 164.055 80.2573V80.0083C164.055 79.2222 164.204 78.5215 164.502 77.9062C164.805 77.2861 165.225 76.8027 165.762 76.4561C166.304 76.1045 166.89 75.9287 167.52 75.9287C168.55 75.9287 169.351 76.2681 169.922 76.9468C170.493 77.6255 170.779 78.5972 170.779 79.8618V80.4258H165.41C165.43 81.207 165.657 81.8394 166.091 82.3228C166.531 82.8013 167.087 83.0405 167.761 83.0405C168.24 83.0405 168.645 82.9429 168.977 82.7476C169.309 82.5522 169.6 82.2935 169.849 81.9712L170.676 82.6157C170.012 83.6362 169.016 84.1465 167.688 84.1465ZM167.52 77.042C166.973 77.042 166.514 77.2422 166.143 77.6426C165.771 78.0381 165.542 78.5947 165.454 79.3125H169.424V79.21C169.385 78.5215 169.199 77.9893 168.867 77.6133C168.535 77.2324 168.086 77.042 167.52 77.042ZM173.635 76.0752L173.679 77.0713C174.285 76.3096 175.076 75.9287 176.052 75.9287C177.727 75.9287 178.572 76.8735 178.586 78.7632V84H177.231V78.7559C177.227 78.1846 177.095 77.7622 176.836 77.4888C176.582 77.2153 176.184 77.0786 175.642 77.0786C175.203 77.0786 174.817 77.1958 174.485 77.4302C174.153 77.6646 173.894 77.9722 173.708 78.353V84H172.354V76.0752H173.635ZM182.468 74.1562V76.0752H183.948V77.1226H182.468V82.0371C182.468 82.3545 182.534 82.5938 182.666 82.7549C182.798 82.9111 183.022 82.9893 183.34 82.9893C183.496 82.9893 183.711 82.96 183.984 82.9014V84C183.628 84.0977 183.281 84.1465 182.944 84.1465C182.339 84.1465 181.882 83.9634 181.575 83.5972C181.267 83.231 181.113 82.7109 181.113 82.0371V77.1226H179.67V76.0752H181.113V74.1562H182.468Z" fill="#001D49"/>
</svg>
