<svg xmlns="http://www.w3.org/2000/svg" width="110.25" height="36.75" viewBox="0 0 110.25 36.75">
  <defs>
    <style>
      .cls-1 {
        fill: #fff;
        fill-rule: evenodd;
      }
    </style>
  </defs>
  <path id="Фигура_3_копия" data-name="Фигура 3 копия" class="cls-1" d="M463.875,746.375h-11.25v-21.75a4.207,4.207,0,0,0,2.25-3.75c0-6.333-23.765-9.75-46.125-9.75s-46.125,3.417-46.125,9.75c0,1.259,1.242,2.694,3,3.75v21.75h-10.5a0.75,0.75,0,0,0,0,1.5h108.75A0.75,0.75,0,0,0,463.875,746.375Zm-12,0h-1.5v-19.5a2.433,2.433,0,0,1-.281-1.472c0.508-.214,1.355-0.558,1.781-0.778v21.75Zm-34.5,0h-17.25v-6h17.25v6Zm0.375-6.75h-18a0.374,0.374,0,0,0-.375.375v6.375h-3v-23.25h25.5v23.25h-3.75V740A0.375,0.375,0,0,0,417.75,739.625Zm-49.125-12.75a1.8,1.8,0,0,1-.344-1.124c0.057,0.021.11,0.043,0.168,0.065a2.506,2.506,0,0,0,.926.309v20.25h-0.75v-19.5Zm4.5-3v22.5h-2.25v-25.5l2.347,1.449A1.942,1.942,0,0,1,373.125,723.875Zm0.75,0a1.829,1.829,0,0,0,.442-1l1.058,0.253v23.25h-1.5v-22.5Zm8.25-.75v23.25h-5.25v-25.5l5.387,1.836a0.708,0.708,0,0,0,.163.035Zm0.75,0,6.75,0.341v22.909h-6.75v-23.25Zm12.75,23.25h-4.5v-23.25h4.5v23.25Zm27-23.25,3.75,0.375v22.875h-3.75v-23.25Zm5.25,0.426,6.75-.426v23.25h-6.75V723.551Zm7.5-.426-0.3-.315a0.789,0.789,0,0,0,.167-0.036l5.382-1.9v25.5h-5.25v-23.25Zm6.75,0,1.063-.186a1.634,1.634,0,0,0,.437.936v22.5h-1.5v-23.25Zm2.25,0.75a1.809,1.809,0,0,1-.112-1.489l2.362-1.511v25.5h-2.25v-22.5Zm3.75,2.25c0.052,0.011.479-.214,0.534-0.214a0.75,0.75,0,0,0,.257-0.046c0.1-.038.2-0.077,0.3-0.115a2.081,2.081,0,0,0,.406,1.125v19.5h-1.5v-20.25Zm-84-5.25c0-3.9,18.326-8.25,44.625-8.25s44.625,4.348,44.625,8.25a2.347,2.347,0,0,1-1.125,1.634v-0.134a0.375,0.375,0,0,0-.75,0v0.648a13.2,13.2,0,0,1-1.167.625c0.1-.592.233-1.242,0.4-1.932a0.375,0.375,0,1,0-.727-0.182c-0.109.435-.2,0.852-0.28,1.251a23.34,23.34,0,0,0-.493-2.751,0.375,0.375,0,1,0-.727.182,25.95,25.95,0,0,1,.608,3.959c-0.2.082-.4,0.163-0.619,0.243V719.75a0.75,0.75,0,0,0-1.093-.667l-2.541,1.307c0.168-.487.366-1.025,0.607-1.626a0.375,0.375,0,0,0-.7-0.278c-0.372.93-.652,1.724-0.865,2.395l-0.249.128a22.545,22.545,0,0,0-1.189-4.023,0.375,0.375,0,0,0-.7.278,21.681,21.681,0,0,1,1.187,4.1l-0.463.238V719.75a0.75,0.75,0,0,0-.993-0.71l-6.32,2.167a16.733,16.733,0,0,1,2.009-4.639,0.375,0.375,0,1,0-.643-0.386,18.631,18.631,0,0,0-1.92,4.192,14.853,14.853,0,0,0-2.715-4.984,0.375,0.375,0,0,0-.586.469,13.369,13.369,0,0,1,2.783,5.542l-6.658.685a0.731,0.731,0,0,0-.332-0.086H422.25v-0.374c0-.029.048-2.93,2.918-6.517a0.375,0.375,0,0,0-.586-0.469,14.88,14.88,0,0,0-2.707,4.955,14.88,14.88,0,0,0-2.707-4.955,0.375,0.375,0,0,0-.586.469c2.869,3.587,2.918,6.488,2.918,6.517V722H396v-0.374c0-.029.048-2.93,2.918-6.517a0.375,0.375,0,0,0-.586-0.469,14.88,14.88,0,0,0-2.707,4.955,14.88,14.88,0,0,0-2.707-4.955,0.375,0.375,0,0,0-.586.469c2.869,3.587,2.918,6.488,2.918,6.517V722h-4.875a0.746,0.746,0,0,0-.189.038,0.692,0.692,0,0,0-.112-0.034l-6.676-.668a13.443,13.443,0,0,1,2.77-5.477,0.375,0.375,0,0,0-.586-0.469,14.841,14.841,0,0,0-2.716,4.984,18.585,18.585,0,0,0-1.92-4.192,0.375,0.375,0,1,0-.643.386,16.868,16.868,0,0,1,1.994,4.574l-6.31-2.1a0.751,0.751,0,0,0-.987.712v1.786l-0.453-.226a21.664,21.664,0,0,1,1.176-4.046,0.375,0.375,0,1,0-.7-0.278,22.5,22.5,0,0,0-1.18,3.974l-0.278-.139c-0.211-.659-0.484-1.432-0.846-2.335a0.375,0.375,0,1,0-.7.278c0.233,0.583.426,1.106,0.591,1.582l-2.533-1.267a0.75,0.75,0,0,0-1.085.671v4.678a0.3,0.3,0,0,0-.03-0.018c-0.207-.078-0.393-0.157-0.589-0.235a25.84,25.84,0,0,1,.607-3.959,0.375,0.375,0,1,0-.727-0.182,23.132,23.132,0,0,0-.492,2.751c-0.08-.4-0.172-0.816-0.281-1.251a0.375,0.375,0,1,0-.727.182c0.173,0.689.3,1.338,0.4,1.931-0.43-.206-0.823-0.413-1.166-0.622v-0.65a0.375,0.375,0,0,0-.75,0v0.135A2.347,2.347,0,0,1,364.125,720.875Zm2.25,3.75a9.754,9.754,0,0,0,1.031.777,3.551,3.551,0,0,0,.469,1.473v19.5h-1.5v-21.75Z" transform="translate(-354.375 -711.125)"/>
</svg>
