<svg width="157" height="55" viewBox="0 0 157 55" fill="none" xmlns="http://www.w3.org/2000/svg">
<path d="M35.28 37.827L41.5 51.396" stroke="white" stroke-width="2" stroke-miterlimit="10" stroke-linecap="round" stroke-linejoin="round"/>
<path d="M11.104 43.699L19.5 3.396L33.796 34.589" stroke="white" stroke-width="2" stroke-miterlimit="10" stroke-linecap="round" stroke-linejoin="round"/>
<path d="M9.5 51.396L10.253 47.779" stroke="white" stroke-width="2" stroke-miterlimit="10" stroke-linecap="round" stroke-linejoin="round"/>
<path d="M93.748 34.291C84.472 32.987 75.525 32.647 66 32.896" stroke="white" stroke-width="2" stroke-miterlimit="10" stroke-linecap="round" stroke-linejoin="round"/>
<path d="M54 33.896C46.557 34.768 39.989 35.724 33.5 38.396L32.5 35.396C32.5 35.396 74.5 14.396 150.5 40.396L146.5 47.396C146.5 47.396 124.977 39.13 98 34.896" stroke="white" stroke-width="2" stroke-miterlimit="10" stroke-linecap="round" stroke-linejoin="round"/>
<path d="M6.5 51.396H151.5" stroke="white" stroke-width="2" stroke-miterlimit="10" stroke-linecap="round" stroke-linejoin="round"/>
<path d="M14.5 42.396L15.5 45.396C15.5 45.396 12.5 46.396 4.5 50.396L2.5 47.396C2.5 47.396 9.5 44.396 14.5 42.396Z" stroke="white" stroke-width="2" stroke-miterlimit="10" stroke-linecap="round" stroke-linejoin="round"/>
<path d="M133.5 35.397C133.5 35.397 136.5 32.397 135.5 31.397C134.5 30.397 80.6139 16.808 47.5569 30.603" stroke="white" stroke-miterlimit="10" stroke-linecap="round" stroke-linejoin="round"/>
<path d="M64.4999 30.396L69.0589 51.396H52.9409L54.4999 32.396L64.4999 30.396Z" stroke="white" stroke-width="2" stroke-miterlimit="10" stroke-linecap="round" stroke-linejoin="round"/>
<path d="M37.5 41.396H47.5V51.396" stroke="white" stroke-miterlimit="10" stroke-linecap="round" stroke-linejoin="round"/>
<path d="M66.9509 41.225L84.4999 41.396L84.4249 33.19" stroke="white" stroke-miterlimit="10" stroke-linecap="round" stroke-linejoin="round"/>
<path d="M67.543 44.084L106.5 44.396L115.5 46.396L118.414 39.056" stroke="white" stroke-miterlimit="10" stroke-linecap="round" stroke-linejoin="round"/>
<path d="M68.1289 46.908L105.5 47.396L112.824 51.396" stroke="white" stroke-miterlimit="10" stroke-linecap="round" stroke-linejoin="round"/>
<path d="M97.5 31.396V44.324H94.5V32.396L97.5 31.396Z" stroke="white" stroke-miterlimit="10" stroke-linecap="round" stroke-linejoin="round"/>
<path d="M97.5 47.396H94.5V51.396H97.5V47.396Z" stroke="white" stroke-miterlimit="10" stroke-linecap="round" stroke-linejoin="round"/>
<path d="M77.7649 41.396V51.396" stroke="white" stroke-miterlimit="10" stroke-linecap="round" stroke-linejoin="round"/>
<path d="M141.299 45.587V51.396" stroke="white" stroke-miterlimit="10" stroke-linecap="round" stroke-linejoin="round"/>
</svg>
