<svg width="122" height="36" viewBox="0 0 122 36" fill="none" xmlns="http://www.w3.org/2000/svg">
<g clip-path="url(#clip0)">
<path d="M53 32.75V30.75H58V32.75" stroke="white" stroke-miterlimit="10" stroke-linecap="round" stroke-linejoin="round"/>
<path d="M63 32.75V30.75H68V32.75" stroke="white" stroke-miterlimit="10" stroke-linecap="round" stroke-linejoin="round"/>
<path d="M42 32.75V30.75H47V32.75" stroke="white" stroke-miterlimit="10" stroke-linecap="round" stroke-linejoin="round"/>
<path d="M31 32.75V30.75H36V32.75" stroke="white" stroke-miterlimit="10" stroke-linecap="round" stroke-linejoin="round"/>
<path d="M20 32.75V30.75H25V32.75" stroke="white" stroke-miterlimit="10" stroke-linecap="round" stroke-linejoin="round"/>
<path d="M9 32.75V30.75H14V32.75" stroke="white" stroke-miterlimit="10" stroke-linecap="round" stroke-linejoin="round"/>
<path d="M74 32.75V30.75H79V32.75" stroke="white" stroke-miterlimit="10" stroke-linecap="round" stroke-linejoin="round"/>
<path d="M85 32.75V30.75H90V32.75" stroke="white" stroke-miterlimit="10" stroke-linecap="round" stroke-linejoin="round"/>
<path d="M96 32.75V30.75H101V32.75" stroke="white" stroke-miterlimit="10" stroke-linecap="round" stroke-linejoin="round"/>
<path d="M107 32.75V30.75H112V32.75" stroke="white" stroke-miterlimit="10" stroke-linecap="round" stroke-linejoin="round"/>
<path d="M13.5 23.25C15.761 23.25 15.761 25.25 18.022 25.25C20.283 25.25 20.283 23.25 22.544 23.25C24.805 23.25 24.805 25.25 27.066 25.25C29.327 25.25 29.327 23.25 31.588 23.25C33.849 23.25 33.849 25.25 36.111 25.25C38.372 25.25 38.372 23.25 40.633 23.25C42.895 23.25 42.895 25.25 45.156 25.25C47.418 25.25 47.418 23.25 49.68 23.25C51.941 23.25 51.941 25.25 54.202 25.25C56.461 25.25 56.461 23.25 58.721 23.25C60.982 23.25 60.982 25.25 63.243 25.25C65.503 25.25 65.503 23.25 67.764 23.25C70.025 23.25 70.025 25.25 72.287 25.25C74.549 25.25 74.549 23.25 76.81 23.25C79.074 23.25 79.074 25.25 81.335 25.25C83.598 25.25 83.598 23.25 85.859 23.25C88.122 23.25 88.122 25.25 90.381 25.25C92.644 25.25 92.644 23.25 94.906 23.25C97.17 23.25 97.17 25.25 99.434 25.25C101.698 25.25 101.699 23.25 103.964 23.25C106.229 23.25 106.23 25.25 108.495 25.25" stroke="white" stroke-miterlimit="10" stroke-linecap="round" stroke-linejoin="round"/>
<path d="M22.5 17.25C24.764 17.25 24.764 19.25 27.028 19.25C29.292 19.25 29.292 17.25 31.556 17.25C33.82 17.25 33.82 19.25 36.084 19.25C38.349 19.25 38.349 17.25 40.613 17.25C42.876 17.25 42.876 19.25 45.14 19.25C47.402 19.25 47.402 17.25 49.664 17.25C51.928 17.25 51.928 19.25 54.192 19.25C56.455 19.25 56.455 17.25 58.718 17.25C60.982 17.25 60.982 19.25 63.246 19.25C65.512 19.25 65.512 17.25 67.776 17.25C70.04 17.25 70.041 19.25 72.306 19.25C74.571 19.25 74.571 17.25 76.835 17.25C79.099 17.25 79.1 19.25 81.364 19.25C83.628 19.25 83.628 17.25 85.893 17.25C88.161 17.25 88.161 19.25 90.426 19.25C92.694 19.25 92.694 17.25 94.961 17.25C97.231 17.25 97.231 19.25 99.498 19.25" stroke="white" stroke-miterlimit="10" stroke-linecap="round" stroke-linejoin="round"/>
<path d="M29.5 11.25C31.922 11.25 31.922 13.25 34.345 13.25C36.765 13.25 36.765 11.25 39.185 11.25C41.607 11.25 41.607 13.25 44.029 13.25C46.45 13.25 46.45 11.25 48.871 11.25C51.293 11.25 51.293 13.25 53.715 13.25C56.138 13.25 56.138 11.25 58.562 11.25C60.984 11.25 60.984 13.25 63.408 13.25C65.832 13.25 65.832 11.25 68.254 11.25C70.676 11.25 70.676 13.25 73.1 13.25C75.522 13.25 75.522 11.25 77.945 11.25C80.37 11.25 80.37 13.25 82.796 13.25C85.222 13.25 85.222 11.25 87.649 11.25C90.076 11.25 90.076 13.25 92.502 13.25" stroke="white" stroke-miterlimit="10" stroke-linecap="round" stroke-linejoin="round"/>
<path d="M37.5 5.25C40.109 5.25 40.109 7.25 42.718 7.25C45.329 7.25 45.329 5.25 47.939 5.25C50.549 5.25 50.549 7.25 53.16 7.25C55.77 7.25 55.77 5.25 58.38 5.25C60.991 5.25 60.991 7.25 63.603 7.25C66.212 7.25 66.212 5.25 68.822 5.25C71.434 5.25 71.434 7.25 74.045 7.25C76.66 7.25 76.66 5.25 79.273 5.25C81.887 5.25 81.887 7.25 84.501 7.25" stroke="white" stroke-miterlimit="10" stroke-linecap="round" stroke-linejoin="round"/>
<path d="M2 33.75H120" stroke="white" stroke-width="2" stroke-miterlimit="10" stroke-linecap="round" stroke-linejoin="round"/>
<path d="M18.5 19.25V14.25C18.5 14.25 18.5 12.25 16.5 12.25" stroke="white" stroke-miterlimit="10" stroke-linecap="round" stroke-linejoin="round"/>
<path d="M18.5 17.61L15.5 19.25" stroke="white" stroke-miterlimit="10" stroke-linecap="round" stroke-linejoin="round"/>
<path d="M18.5 14.61L15.5 16.25" stroke="white" stroke-miterlimit="10" stroke-linecap="round" stroke-linejoin="round"/>
<path d="M15.5 21.25V16.25C15.5 16.25 15.5 14.25 13.5 14.25" stroke="white" stroke-miterlimit="10" stroke-linecap="round" stroke-linejoin="round"/>
<path d="M34.5 7.25V2.25C34.5 2.25 34.5 0.25 32.5 0.25" stroke="white" stroke-miterlimit="10" stroke-linecap="round" stroke-linejoin="round"/>
<path d="M34.5 5.60999L31.5 7.24998" stroke="white" stroke-miterlimit="10" stroke-linecap="round" stroke-linejoin="round"/>
<path d="M34.5 2.60999L31.5 4.24998" stroke="white" stroke-miterlimit="10" stroke-linecap="round" stroke-linejoin="round"/>
<path d="M31.5 9.25V4.25C31.5 4.25 31.5 2.25 29.5 2.25" stroke="white" stroke-miterlimit="10" stroke-linecap="round" stroke-linejoin="round"/>
</g>
<defs>
<clipPath id="clip0">
<rect width="122" height="36" fill="white"/>
</clipPath>
</defs>
</svg>
