<svg xmlns="http://www.w3.org/2000/svg" width="62" height="84" viewBox="0 0 62 84">
  <defs>
    <style>
      .cls-1 {
        fill: #216045;
        fill-rule: evenodd;
      }
    </style>
  </defs>
  <path id="Фигура_3" data-name="Фигура 3" class="cls-1" d="M668.522,1057.11l-19.893-18.73c-0.009-.01-0.02-0.01-0.028-0.02a1.487,1.487,0,0,0-.435-0.28,0.045,0.045,0,0,1-.034-0.01,1.52,1.52,0,0,0-.524-0.1H608.485a1.506,1.506,0,0,0-1.5,1.51v80.97a1.506,1.506,0,0,0,1.5,1.51H667.5a1.506,1.506,0,0,0,1.5-1.51v-62.23A1.536,1.536,0,0,0,668.522,1057.11ZM649.1,1042.95l14.6,13.76H649.1v-13.76Zm-39.124,75.99v-77.95h36.133v17.23a1.506,1.506,0,0,0,1.495,1.51h18.4v59.21H609.98Zm6.446-8.73h2.214v-2.24h-2.214v2.24Zm10.322-11.97a2.428,2.428,0,0,0-1.475-.46,2.308,2.308,0,0,0-1.527.59,3.3,3.3,0,0,0-.816,1.08V1098h-2.214v17.17h2.214v-6.48a2.83,2.83,0,0,0,.74,1.14,2.2,2.2,0,0,0,1.5.55,2.5,2.5,0,0,0,1.527-.46,2.89,2.89,0,0,0,.962-1.35,6.184,6.184,0,0,0,.332-2.14v-4.76a6.213,6.213,0,0,0-.315-2.11A2.744,2.744,0,0,0,626.748,1098.24Zm-0.974,8.11a2.441,2.441,0,0,1-.379,1.46,1.219,1.219,0,0,1-1.043.53,1.3,1.3,0,0,1-.764-0.23,1.484,1.484,0,0,1-.489-0.67,2.877,2.877,0,0,1-.169-1.04v-4.69a2.71,2.71,0,0,1,.169-1.01,1.343,1.343,0,0,1,.489-0.64,1.3,1.3,0,0,1,.764-0.23,1.227,1.227,0,0,1,1.043.51,2.35,2.35,0,0,1,.379,1.42v4.59Zm9.372-6.92a3.748,3.748,0,0,0-.874-1.08,2.4,2.4,0,0,0-2.956-.12,2.674,2.674,0,0,0-.914,1.29,5.909,5.909,0,0,0-.315,2.04v5.21a5.462,5.462,0,0,0,.315,1.97,2.65,2.65,0,0,0,.914,1.25,2.535,2.535,0,0,0,3-.13,3.206,3.206,0,0,0,.828-1.21v1.56h2.214V1093.1h-2.214v6.33Zm-0.17,8.1a1.327,1.327,0,0,1-.484.6,1.351,1.351,0,0,1-.768.21,1.317,1.317,0,0,1-1.044-.44,1.807,1.807,0,0,1-.379-1.22v-4.99a2.123,2.123,0,0,1,.379-1.34,1.258,1.258,0,0,1,1.044-.48,1.351,1.351,0,0,1,.768.21,1.333,1.333,0,0,1,.484.62,2.583,2.583,0,0,1,.17.98v4.9A2.391,2.391,0,0,1,634.976,1107.53Zm5.957-13.61a3.468,3.468,0,0,0-.751,2.42V1098h-1.19v2.11h1.19v10.1H642.4v-10.1h2.18V1098H642.4v-1.65a1.319,1.319,0,0,1,.228-0.82,0.745,0.745,0,0,1,.646-0.31h1.306v-2.12H643.2A2.951,2.951,0,0,0,640.933,1093.92Z" transform="translate(-607 -1037.97)"/>
</svg>
