<svg xmlns="http://www.w3.org/2000/svg" width="18" height="15" viewBox="0 0 18 15">
  <defs>
    <style>
      .cls-1 {
        fill: #fff;
        fill-rule: evenodd;
      }
    </style>
  </defs>
  <path class="cls-1" d="M800.011,47.78a7.24,7.24,0,0,1-2.122.6,3.776,3.776,0,0,0,1.624-2.1,7.269,7.269,0,0,1-2.345.919,3.651,3.651,0,0,0-2.7-1.2,3.742,3.742,0,0,0-3.694,3.787,3.889,3.889,0,0,0,.1.863,10.4,10.4,0,0,1-7.614-3.957,3.852,3.852,0,0,0,1.143,5.056,3.606,3.606,0,0,1-1.673-.473c0,0.016,0,.032,0,0.047a3.768,3.768,0,0,0,2.964,3.714,3.618,3.618,0,0,1-1.669.065,3.712,3.712,0,0,0,3.451,2.63,7.315,7.315,0,0,1-5.469,1.568,10.273,10.273,0,0,0,5.663,1.7c6.794,0,10.51-5.77,10.51-10.775,0-.164,0-0.328-0.01-0.49a7.611,7.611,0,0,0,1.843-1.96h0Z" transform="translate(-782 -46)"/>
</svg>
