<svg xmlns="http://www.w3.org/2000/svg" width="16" height="22" viewBox="0 0 16 22">
  <defs>
    <style>
      .cls-1 {
        fill: #fff;
        fill-rule: evenodd;
      }
    </style>
  </defs>
  <path class="cls-1" d="M557.831,45.989h-1.625l-0.989,4.081h-0.1l-1.038-4.081h-1.611l1.9,6.163V56.2h1.6V51.962l1.861-5.974h0Zm0.487,9.832a2,2,0,0,0,1.485.568h0.014a1.906,1.906,0,0,0,2.064-2.067V50.43a1.874,1.874,0,0,0-.562-1.407,1.984,1.984,0,0,0-1.445-.546,2.206,2.206,0,0,0-1.541.518,1.785,1.785,0,0,0-.574,1.394v3.9a2.085,2.085,0,0,0,.559,1.528h0Zm0.9-5.489h0a0.524,0.524,0,0,1,.162-0.4,0.6,0.6,0,0,1,.422-0.151,0.671,0.671,0,0,1,.456.151,0.509,0.509,0,0,1,.173.4v4.1a0.646,0.646,0,0,1-.17.476,0.61,0.61,0,0,1-.459.173,0.554,0.554,0,0,1-.433-0.169,0.7,0.7,0,0,1-.151-0.481v-4.1h0Zm6.5-1.665v5.717a2.03,2.03,0,0,1-.44.405,0.774,0.774,0,0,1-.4.158,0.333,0.333,0,0,1-.288-0.12,0.659,0.659,0,0,1-.089-0.387V48.667h-1.421v6.3a1.681,1.681,0,0,0,.249,1.006,0.865,0.865,0,0,0,.742.335,1.687,1.687,0,0,0,.826-0.239,3.141,3.141,0,0,0,.817-0.7V56.2h1.419V48.667h-1.419Zm-4,13.013a0.454,0.454,0,0,0-.205.05,0.721,0.721,0,0,0-.2.157V65.1a0.857,0.857,0,0,0,.231.181,0.513,0.513,0,0,0,.234.056,0.311,0.311,0,0,0,.262-0.109,0.586,0.586,0,0,0,.084-0.355V62.211a0.636,0.636,0,0,0-.1-0.4A0.356,0.356,0,0,0,561.724,61.68Zm3.571,0.018a0.381,0.381,0,0,0-.333.14,0.813,0.813,0,0,0-.1.463v0.522h0.858V62.3a0.813,0.813,0,0,0-.1-0.463A0.37,0.37,0,0,0,565.295,61.7Zm2.6-1.967a2.284,2.284,0,0,0-2.312-2.253q-2.6-.107-5.3-0.1h-0.565q-2.7,0-5.3.1a2.283,2.283,0,0,0-2.311,2.253c-0.077.985-.11,1.97-0.107,2.955s0.03,1.97.107,2.956a2.283,2.283,0,0,0,2.311,2.253q2.609,0.108,5.328.1h0.514q2.718,0,5.328-.1a2.284,2.284,0,0,0,2.312-2.253c0.077-.986.11-1.97,0.108-2.956S567.97,60.716,567.893,59.731ZM555.5,66.077h-1.094V60.108h-1.131V59.1h3.357v1.013H555.5v5.968Zm3.891,0h-0.972V65.508a2.089,2.089,0,0,1-.558.479,1.14,1.14,0,0,1-.564.164,0.593,0.593,0,0,1-.508-0.229,1.16,1.16,0,0,1-.171-0.69v-4.3h0.971v3.947a0.446,0.446,0,0,0,.062.265,0.229,0.229,0,0,0,.2.082,0.527,0.527,0,0,0,.27-0.108,1.353,1.353,0,0,0,.3-0.277V60.927h0.972v5.15Zm3.738-1.067a1.342,1.342,0,0,1-.228.841,0.79,0.79,0,0,1-.66.292,1.1,1.1,0,0,1-.508-0.114,1.294,1.294,0,0,1-.415-0.348v0.4h-0.98V59.1h0.98v2.247a1.5,1.5,0,0,1,.417-0.358,0.915,0.915,0,0,1,.447-0.123,0.822,0.822,0,0,1,.7.33,1.607,1.607,0,0,1,.243.961v2.857Zm3.589-1.388h-1.857v0.972a1.166,1.166,0,0,0,.1.563,0.355,0.355,0,0,0,.328.157,0.392,0.392,0,0,0,.338-0.132,1.154,1.154,0,0,0,.1-0.588V64.236h1v0.387a1.716,1.716,0,0,1-.365,1.192,1.4,1.4,0,0,1-1.09.4,1.3,1.3,0,0,1-1.027-.424,1.707,1.707,0,0,1-.374-1.169V62.311a1.5,1.5,0,0,1,.411-1.093,1.422,1.422,0,0,1,1.063-.422,1.32,1.32,0,0,1,1.025.391,1.609,1.609,0,0,1,.357,1.124v1.31Z" transform="translate(-552 -46)"/>
</svg>
