<svg xmlns="http://www.w3.org/2000/svg" width="18" height="18" viewBox="0 0 18 18">
  <defs>
    <style>
      .cls-1 {
        fill: #fff;
        fill-rule: evenodd;
      }
    </style>
  </defs>
  <path id="Фигура_2" data-name="Фигура 2" class="cls-1" d="M599,50.621c2.4,0,2.688.009,3.637,0.052a4.98,4.98,0,0,1,1.671.31,2.978,2.978,0,0,1,1.708,1.708,4.957,4.957,0,0,1,.31,1.671c0.044,0.949.053,1.234,0.053,3.637s-0.009,2.688-.053,3.637a4.959,4.959,0,0,1-.31,1.671,2.98,2.98,0,0,1-1.708,1.708,4.981,4.981,0,0,1-1.671.31c-0.949.043-1.233,0.052-3.637,0.052s-2.687-.009-3.636-0.052a4.981,4.981,0,0,1-1.671-.31,2.986,2.986,0,0,1-1.709-1.708,4.992,4.992,0,0,1-.309-1.671c-0.044-.949-0.053-1.234-0.053-3.637s0.009-2.688.053-3.637a4.99,4.99,0,0,1,.309-1.671,2.985,2.985,0,0,1,1.709-1.708,4.98,4.98,0,0,1,1.671-.31c0.949-.043,1.233-0.052,3.636-0.052M599,49c-2.444,0-2.75.01-3.71,0.054a6.616,6.616,0,0,0-2.185.418,4.6,4.6,0,0,0-2.632,2.632,6.577,6.577,0,0,0-.418,2.185C590.01,55.249,590,55.555,590,58s0.011,2.751.055,3.711a6.577,6.577,0,0,0,.418,2.185,4.6,4.6,0,0,0,2.632,2.632,6.62,6.62,0,0,0,2.185.418c0.96,0.044,1.266.054,3.71,0.054s2.751-.01,3.711-0.054a6.62,6.62,0,0,0,2.185-.418,4.6,4.6,0,0,0,2.632-2.632,6.6,6.6,0,0,0,.418-2.185C607.989,60.75,608,60.444,608,58s-0.01-2.751-.054-3.711a6.6,6.6,0,0,0-.418-2.185,4.6,4.6,0,0,0-2.632-2.632,6.616,6.616,0,0,0-2.185-.418C601.75,49.01,601.444,49,599,49h0Zm0,4.378A4.622,4.622,0,1,0,603.621,58,4.621,4.621,0,0,0,599,53.378ZM599,61a3,3,0,1,1,3-3A3,3,0,0,1,599,61Zm5.885-7.8a1.08,1.08,0,1,1-1.08-1.08A1.08,1.08,0,0,1,604.884,53.2Z" transform="translate(-590 -49)"/>
</svg>
